<?xml version="1.0" standalone="no"?><svg xmlns:xlink="http://www.w3.org/1999/xlink" xmlns="http://www.w3.org/2000/svg" viewBox="0 0 1080 1080" preserveAspectRatio="xMaxYMax slice"><g transform="scale(2.1243115656963023)"><rect x="0" y="0" width="508.4" height="508.4" fill="#fcfcfc"/><circle cx="14.950000000000001" cy="14.950000000000001" r="2.99" fill="#f7f3fc"/><circle cx="44.86" cy="14.950000000000001" r="2.99" fill="#9d99ef"/><circle cx="74.75999999999999" cy="14.950000000000001" r="2.99" fill="#6b63e9"/><circle cx="104.67" cy="14.950000000000001" r="2.99" fill="#e6e5f9"/><circle cx="134.58" cy="14.950000000000001" r="2.99" fill="#c9c7f5"/><circle cx="164.48000000000002" cy="14.950000000000001" r="2.99" fill="#e7d6fe"/><circle cx="194.39000000000001" cy="14.950000000000001" r="2.99" fill="#f8f4fc"/><circle cx="224.29000000000002" cy="14.950000000000001" r="2.99" fill="#7770ea"/><circle cx="254.20000000000002" cy="14.950000000000001" r="2.99" fill="#f5f5fb"/><circle cx="284.11" cy="14.950000000000001" r="2.99" fill="#f8f8fb"/><circle cx="314.01" cy="14.950000000000001" r="2.99" fill="#6159e7"/><circle cx="343.92" cy="14.950000000000001" r="2.99" fill="#dfc8ff"/><circle cx="373.82" cy="14.950000000000001" r="2.99" fill="#554de6"/><circle cx="403.73" cy="14.950000000000001" r="2.99" fill="#ece0fd"/><circle cx="433.63" cy="14.950000000000001" r="2.99" fill="#544ce6"/><circle cx="463.54" cy="14.950000000000001" r="2.99" fill="#8079ec"/><circle cx="493.45" cy="14.950000000000001" r="2.99" fill="#a7a3f1"/><circle cx="14.950000000000001" cy="44.86" r="2.99" fill="#f9f6fc"/><circle cx="44.86" cy="44.86" r="2.99" fill="#dad9f8"/><circle cx="74.75999999999999" cy="44.86" r="2.99" fill="#ecdffd"/><circle cx="104.67" cy="44.86" r="2.99" fill="#dec6ff"/><circle cx="134.58" cy="44.86" r="2.99" fill="#6b64e9"/><circle cx="164.48000000000002" cy="44.86" r="2.99" fill="#a19cf0"/><circle cx="194.39000000000001" cy="44.86" r="2.99" fill="#e8e7f9"/><circle cx="224.29000000000002" cy="44.86" r="2.99" fill="#6f68e9"/><circle cx="254.20000000000002" cy="44.86" r="2.99" fill="#fcfcfc"/><circle cx="284.11" cy="44.86" r="2.99" fill="#8882ed"/><circle cx="314.01" cy="44.86" r="2.99" fill="#8680ec"/><circle cx="343.92" cy="44.86" r="2.99" fill="#a09bf0"/><circle cx="373.82" cy="44.86" r="2.99" fill="#f8f4fc"/><circle cx="403.73" cy="44.86" r="2.99" fill="#8982ed"/><circle cx="433.63" cy="44.86" r="2.99" fill="#f7f7fb"/><circle cx="463.54" cy="44.86" r="2.99" fill="#efe4fd"/><circle cx="493.45" cy="44.86" r="2.99" fill="#a8a4f1"/><circle cx="14.950000000000001" cy="74.75999999999999" r="2.99" fill="#ccc9f6"/><circle cx="44.86" cy="74.75999999999999" r="2.99" fill="#dbd9f8"/><circle cx="74.75999999999999" cy="74.75999999999999" r="2.99" fill="#e6d5fe"/><circle cx="104.67" cy="74.75999999999999" r="2.99" fill="#a39ef0"/><circle cx="134.58" cy="74.75999999999999" r="2.99" fill="#dddbf8"/><circle cx="164.48000000000002" cy="74.75999999999999" r="2.99" fill="#f5effd"/><circle cx="194.39000000000001" cy="74.75999999999999" r="2.99" fill="#f7f2fc"/><circle cx="224.29000000000002" cy="74.75999999999999" r="2.99" fill="#bebbf4"/><circle cx="254.20000000000002" cy="74.75999999999999" r="2.99" fill="#f9f7fc"/><circle cx="284.11" cy="74.75999999999999" r="2.99" fill="#b5b2f3"/><circle cx="314.01" cy="74.75999999999999" r="2.99" fill="#f1e9fd"/><circle cx="343.92" cy="74.75999999999999" r="2.99" fill="#c7c4f5"/><circle cx="373.82" cy="74.75999999999999" r="2.99" fill="#fcfbfc"/><circle cx="403.73" cy="74.75999999999999" r="2.99" fill="#655de8"/><circle cx="433.63" cy="74.75999999999999" r="2.99" fill="#f7f3fc"/><circle cx="463.54" cy="74.75999999999999" r="2.99" fill="#9a95ef"/><circle cx="493.45" cy="74.75999999999999" r="2.99" fill="#f6f2fc"/><circle cx="14.950000000000001" cy="104.67" r="2.99" fill="#665ee8"/><circle cx="44.86" cy="104.67" r="2.99" fill="#f1e9fd"/><circle cx="74.75999999999999" cy="104.67" r="2.99" fill="#f3ecfd"/><circle cx="104.67" cy="104.67" r="2.99" fill="#ecdefd"/><circle cx="134.58" cy="104.67" r="2.99" fill="#cac8f5"/><circle cx="164.48000000000002" cy="104.67" r="2.99" fill="#8a84ed"/><circle cx="194.39000000000001" cy="104.67" r="2.99" fill="#e0c9ff"/><circle cx="224.29000000000002" cy="104.67" r="2.99" fill="#e2cdfe"/><circle cx="254.20000000000002" cy="104.67" r="2.99" fill="#ebddfe"/><circle cx="284.11" cy="104.67" r="2.99" fill="#e0cafe"/><circle cx="314.01" cy="104.67" r="2.99" fill="#f9f7fc"/><circle cx="343.92" cy="104.67" r="2.99" fill="#5c54e7"/><circle cx="373.82" cy="104.67" r="2.99" fill="#bdbaf4"/><circle cx="403.73" cy="104.67" r="2.99" fill="#c7c4f5"/><circle cx="433.63" cy="104.67" r="2.99" fill="#625ae8"/><circle cx="463.54" cy="104.67" r="2.99" fill="#dac0ff"/><circle cx="493.45" cy="104.67" r="2.99" fill="#f7f3fc"/><circle cx="14.950000000000001" cy="134.58" r="2.99" fill="#ebddfe"/><circle cx="44.86" cy="134.58" r="2.99" fill="#655de8"/><circle cx="74.75999999999999" cy="134.58" r="2.99" fill="#f0e6fd"/><circle cx="104.67" cy="134.58" r="2.99" fill="#8a84ed"/><circle cx="134.58" cy="134.58" r="2.99" fill="#e8d8fe"/><circle cx="164.48000000000002" cy="134.58" r="2.99" fill="#554ce6"/><circle cx="194.39000000000001" cy="134.58" r="2.99" fill="#c9c6f5"/><circle cx="224.29000000000002" cy="134.58" r="2.99" fill="#a19df0"/><circle cx="254.20000000000002" cy="134.58" r="2.99" fill="#6760e8"/><circle cx="284.11" cy="134.58" r="2.99" fill="#a8a4f1"/><circle cx="314.01" cy="134.58" r="2.99" fill="#eee3fd"/><circle cx="343.92" cy="134.58" r="2.99" fill="#e5d3fe"/><circle cx="373.82" cy="134.58" r="2.99" fill="#dec6ff"/><circle cx="403.73" cy="134.58" r="2.99" fill="#dfc8ff"/><circle cx="433.63" cy="134.58" r="2.99" fill="#e6e5f9"/><circle cx="463.54" cy="134.58" r="2.99" fill="#c7c4f5"/><circle cx="493.45" cy="134.58" r="2.99" fill="#fbfbfc"/><circle cx="14.950000000000001" cy="164.48000000000002" r="2.99" fill="#d1cef6"/><circle cx="44.86" cy="164.48000000000002" r="2.99" fill="#8c86ed"/><circle cx="74.75999999999999" cy="164.48000000000002" r="2.99" fill="#847eec"/><circle cx="104.67" cy="164.48000000000002" r="2.99" fill="#7c75eb"/><circle cx="134.58" cy="164.48000000000002" r="2.99" fill="#dfc8ff"/><circle cx="164.48000000000002" cy="164.48000000000002" r="2.99" fill="#dbc0ff"/><circle cx="194.39000000000001" cy="164.48000000000002" r="2.99" fill="#e8e7f9"/><circle cx="224.29000000000002" cy="164.48000000000002" r="2.99" fill="#cccaf6"/><circle cx="254.20000000000002" cy="164.48000000000002" r="2.99" fill="#f4eefd"/><circle cx="284.11" cy="164.48000000000002" r="2.99" fill="#f8f5fc"/><circle cx="314.01" cy="164.48000000000002" r="2.99" fill="#ecdffd"/><circle cx="343.92" cy="164.48000000000002" r="2.99" fill="#b3b0f2"/><circle cx="373.82" cy="164.48000000000002" r="2.99" fill="#c7c5f5"/><circle cx="403.73" cy="164.48000000000002" r="2.99" fill="#e7d7fe"/><circle cx="433.63" cy="164.48000000000002" r="2.99" fill="#f3ecfd"/><circle cx="463.54" cy="164.48000000000002" r="2.99" fill="#eadbfe"/><circle cx="493.45" cy="164.48000000000002" r="2.99" fill="#efe5fd"/><circle cx="14.950000000000001" cy="194.39000000000001" r="2.99" fill="#5e55e7"/><circle cx="44.86" cy="194.39000000000001" r="2.99" fill="#f7f4fc"/><circle cx="74.75999999999999" cy="194.39000000000001" r="2.99" fill="#8e88ed"/><circle cx="104.67" cy="194.39000000000001" r="2.99" fill="#e9dbfe"/><circle cx="134.58" cy="194.39000000000001" r="2.99" fill="#8d87ed"/><circle cx="164.48000000000002" cy="194.39000000000001" r="2.99" fill="#6d65e9"/><circle cx="194.39000000000001" cy="194.39000000000001" r="2.99" fill="#a39ff0"/><circle cx="224.29000000000002" cy="194.39000000000001" r="2.99" fill="#d8d6f7"/><circle cx="254.20000000000002" cy="194.39000000000001" r="2.99" fill="#e2ccfe"/><circle cx="284.11" cy="194.39000000000001" r="2.99" fill="#d0cef6"/><circle cx="314.01" cy="194.39000000000001" r="2.99" fill="#efeffa"/><circle cx="343.92" cy="194.39000000000001" r="2.99" fill="#b0acf2"/><circle cx="373.82" cy="194.39000000000001" r="2.99" fill="#e7d7fe"/><circle cx="403.73" cy="194.39000000000001" r="2.99" fill="#a19df0"/><circle cx="433.63" cy="194.39000000000001" r="2.99" fill="#e3d0fe"/><circle cx="463.54" cy="194.39000000000001" r="2.99" fill="#afabf2"/><circle cx="493.45" cy="194.39000000000001" r="2.99" fill="#f2f2fb"/><circle cx="14.950000000000001" cy="224.29000000000002" r="2.99" fill="#dedcf8"/><circle cx="44.86" cy="224.29000000000002" r="2.99" fill="#ddc5ff"/><circle cx="74.75999999999999" cy="224.29000000000002" r="2.99" fill="#655de8"/><circle cx="104.67" cy="224.29000000000002" r="2.99" fill="#827cec"/><circle cx="134.58" cy="224.29000000000002" r="2.99" fill="#847eec"/><circle cx="164.48000000000002" cy="224.29000000000002" r="2.99" fill="#f3ebfd"/><circle cx="194.39000000000001" cy="224.29000000000002" r="2.99" fill="#e4d1fe"/><circle cx="224.29000000000002" cy="224.29000000000002" r="2.99" fill="#b9b6f3"/><circle cx="254.20000000000002" cy="224.29000000000002" r="2.99" fill="#ddc4ff"/><circle cx="284.11" cy="224.29000000000002" r="2.99" fill="#8b85ed"/><circle cx="314.01" cy="224.29000000000002" r="2.99" fill="#7b74eb"/><circle cx="343.92" cy="224.29000000000002" r="2.99" fill="#dec6ff"/><circle cx="373.82" cy="224.29000000000002" r="2.99" fill="#bebbf4"/><circle cx="403.73" cy="224.29000000000002" r="2.99" fill="#9993ef"/><circle cx="433.63" cy="224.29000000000002" r="2.99" fill="#ede1fd"/><circle cx="463.54" cy="224.29000000000002" r="2.99" fill="#dfddf8"/><circle cx="493.45" cy="224.29000000000002" r="2.99" fill="#f5effd"/><circle cx="14.950000000000001" cy="254.20000000000002" r="2.99" fill="#f8f8fb"/><circle cx="44.86" cy="254.20000000000002" r="2.99" fill="#dec6ff"/><circle cx="74.75999999999999" cy="254.20000000000002" r="2.99" fill="#f9f6fc"/><circle cx="104.67" cy="254.20000000000002" r="2.99" fill="#f6f1fd"/><circle cx="134.58" cy="254.20000000000002" r="2.99" fill="#e2cefe"/><circle cx="164.48000000000002" cy="254.20000000000002" r="2.99" fill="#534ae6"/><circle cx="194.39000000000001" cy="254.20000000000002" r="2.99" fill="#8882ed"/><circle cx="224.29000000000002" cy="254.20000000000002" r="2.99" fill="#eeedfa"/><circle cx="254.20000000000002" cy="254.20000000000002" r="2.99" fill="#cfcdf6"/><circle cx="284.11" cy="254.20000000000002" r="2.99" fill="#766fea"/><circle cx="314.01" cy="254.20000000000002" r="2.99" fill="#f1f1fb"/><circle cx="343.92" cy="254.20000000000002" r="2.99" fill="#8e89ed"/><circle cx="373.82" cy="254.20000000000002" r="2.99" fill="#e5d3fe"/><circle cx="403.73" cy="254.20000000000002" r="2.99" fill="#8b85ed"/><circle cx="433.63" cy="254.20000000000002" r="2.99" fill="#fcfbfc"/><circle cx="463.54" cy="254.20000000000002" r="2.99" fill="#c0bcf4"/><circle cx="493.45" cy="254.20000000000002" r="2.99" fill="#574fe6"/><circle cx="14.950000000000001" cy="284.11" r="2.99" fill="#a6a2f1"/><circle cx="44.86" cy="284.11" r="2.99" fill="#a9a5f1"/><circle cx="74.75999999999999" cy="284.11" r="2.99" fill="#e2cefe"/><circle cx="104.67" cy="284.11" r="2.99" fill="#e6d4fe"/><circle cx="134.58" cy="284.11" r="2.99" fill="#736cea"/><circle cx="164.48000000000002" cy="284.11" r="2.99" fill="#e6d4fe"/><circle cx="194.39000000000001" cy="284.11" r="2.99" fill="#f0effa"/><circle cx="224.29000000000002" cy="284.11" r="2.99" fill="#f1e9fd"/><circle cx="254.20000000000002" cy="284.11" r="2.99" fill="#e2cdfe"/><circle cx="284.11" cy="284.11" r="2.99" fill="#f8f5fc"/><circle cx="314.01" cy="284.11" r="2.99" fill="#d9d7f7"/><circle cx="343.92" cy="284.11" r="2.99" fill="#b5b1f3"/><circle cx="373.82" cy="284.11" r="2.99" fill="#b3aff2"/><circle cx="403.73" cy="284.11" r="2.99" fill="#665ee8"/><circle cx="433.63" cy="284.11" r="2.99" fill="#e9e7f9"/><circle cx="463.54" cy="284.11" r="2.99" fill="#b1adf2"/><circle cx="493.45" cy="284.11" r="2.99" fill="#6861e8"/><circle cx="14.950000000000001" cy="314.01" r="2.99" fill="#ccc9f6"/><circle cx="44.86" cy="314.01" r="2.99" fill="#f6f2fd"/><circle cx="74.75999999999999" cy="314.01" r="2.99" fill="#dbc0ff"/><circle cx="104.67" cy="314.01" r="2.99" fill="#deddf8"/><circle cx="134.58" cy="314.01" r="2.99" fill="#dbc0ff"/><circle cx="164.48000000000002" cy="314.01" r="2.99" fill="#a39ef0"/><circle cx="194.39000000000001" cy="314.01" r="2.99" fill="#6760e8"/><circle cx="224.29000000000002" cy="314.01" r="2.99" fill="#f4eefd"/><circle cx="254.20000000000002" cy="314.01" r="2.99" fill="#e4d1fe"/><circle cx="284.11" cy="314.01" r="2.99" fill="#eee2fd"/><circle cx="314.01" cy="314.01" r="2.99" fill="#eee3fd"/><circle cx="343.92" cy="314.01" r="2.99" fill="#e0cafe"/><circle cx="373.82" cy="314.01" r="2.99" fill="#8781ec"/><circle cx="403.73" cy="314.01" r="2.99" fill="#ede1fd"/><circle cx="433.63" cy="314.01" r="2.99" fill="#f7f7fb"/><circle cx="463.54" cy="314.01" r="2.99" fill="#f1e9fd"/><circle cx="493.45" cy="314.01" r="2.99" fill="#f3ecfd"/><circle cx="14.950000000000001" cy="343.92" r="2.99" fill="#e9dafe"/><circle cx="44.86" cy="343.92" r="2.99" fill="#d7d5f7"/><circle cx="74.75999999999999" cy="343.92" r="2.99" fill="#a09bf0"/><circle cx="104.67" cy="343.92" r="2.99" fill="#9994ef"/><circle cx="134.58" cy="343.92" r="2.99" fill="#f1e8fd"/><circle cx="164.48000000000002" cy="343.92" r="2.99" fill="#e2cdfe"/><circle cx="194.39000000000001" cy="343.92" r="2.99" fill="#ebdefd"/><circle cx="224.29000000000002" cy="343.92" r="2.99" fill="#f1e9fd"/><circle cx="254.20000000000002" cy="343.92" r="2.99" fill="#f2e9fd"/><circle cx="284.11" cy="343.92" r="2.99" fill="#fbfbfc"/><circle cx="314.01" cy="343.92" r="2.99" fill="#e3cffe"/><circle cx="343.92" cy="343.92" r="2.99" fill="#c3c0f4"/><circle cx="373.82" cy="343.92" r="2.99" fill="#f7f3fc"/><circle cx="403.73" cy="343.92" r="2.99" fill="#938dee"/><circle cx="433.63" cy="343.92" r="2.99" fill="#eee3fd"/><circle cx="463.54" cy="343.92" r="2.99" fill="#dfc8ff"/><circle cx="493.45" cy="343.92" r="2.99" fill="#e5e4f9"/><circle cx="14.950000000000001" cy="373.82" r="2.99" fill="#f0e6fd"/><circle cx="44.86" cy="373.82" r="2.99" fill="#ddc4ff"/><circle cx="74.75999999999999" cy="373.82" r="2.99" fill="#dad9f8"/><circle cx="104.67" cy="373.82" r="2.99" fill="#c9c6f5"/><circle cx="134.58" cy="373.82" r="2.99" fill="#8f89ed"/><circle cx="164.48000000000002" cy="373.82" r="2.99" fill="#e2cefe"/><circle cx="194.39000000000001" cy="373.82" r="2.99" fill="#8983ed"/><circle cx="224.29000000000002" cy="373.82" r="2.99" fill="#ebdefd"/><circle cx="254.20000000000002" cy="373.82" r="2.99" fill="#c1bef4"/><circle cx="284.11" cy="373.82" r="2.99" fill="#e7e6f9"/><circle cx="314.01" cy="373.82" r="2.99" fill="#e4e3f9"/><circle cx="343.92" cy="373.82" r="2.99" fill="#bbb7f3"/><circle cx="373.82" cy="373.82" r="2.99" fill="#f3ebfd"/><circle cx="403.73" cy="373.82" r="2.99" fill="#9791ef"/><circle cx="433.63" cy="373.82" r="2.99" fill="#ece0fd"/><circle cx="463.54" cy="373.82" r="2.99" fill="#9d98ef"/><circle cx="493.45" cy="373.82" r="2.99" fill="#fbfbfc"/><circle cx="14.950000000000001" cy="403.73" r="2.99" fill="#726aea"/><circle cx="44.86" cy="403.73" r="2.99" fill="#dfc8ff"/><circle cx="74.75999999999999" cy="403.73" r="2.99" fill="#ddc4ff"/><circle cx="104.67" cy="403.73" r="2.99" fill="#f7f4fc"/><circle cx="134.58" cy="403.73" r="2.99" fill="#dbc1ff"/><circle cx="164.48000000000002" cy="403.73" r="2.99" fill="#ebdefd"/><circle cx="194.39000000000001" cy="403.73" r="2.99" fill="#b4b1f2"/><circle cx="224.29000000000002" cy="403.73" r="2.99" fill="#aba7f1"/><circle cx="254.20000000000002" cy="403.73" r="2.99" fill="#c6c3f5"/><circle cx="284.11" cy="403.73" r="2.99" fill="#a7a2f1"/><circle cx="314.01" cy="403.73" r="2.99" fill="#cfcdf6"/><circle cx="343.92" cy="403.73" r="2.99" fill="#d4d2f7"/><circle cx="373.82" cy="403.73" r="2.99" fill="#f5f0fd"/><circle cx="403.73" cy="403.73" r="2.99" fill="#e4d2fe"/><circle cx="433.63" cy="403.73" r="2.99" fill="#fbfbfc"/><circle cx="463.54" cy="403.73" r="2.99" fill="#e4d1fe"/><circle cx="493.45" cy="403.73" r="2.99" fill="#f2eafd"/><circle cx="14.950000000000001" cy="433.63" r="2.99" fill="#dbc1ff"/><circle cx="44.86" cy="433.63" r="2.99" fill="#ede1fd"/><circle cx="74.75999999999999" cy="433.63" r="2.99" fill="#f7f3fc"/><circle cx="104.67" cy="433.63" r="2.99" fill="#e2cdfe"/><circle cx="134.58" cy="433.63" r="2.99" fill="#bdbaf4"/><circle cx="164.48000000000002" cy="433.63" r="2.99" fill="#c6c4f5"/><circle cx="194.39000000000001" cy="433.63" r="2.99" fill="#ede1fd"/><circle cx="224.29000000000002" cy="433.63" r="2.99" fill="#5e56e7"/><circle cx="254.20000000000002" cy="433.63" r="2.99" fill="#d4d2f7"/><circle cx="284.11" cy="433.63" r="2.99" fill="#cecbf6"/><circle cx="314.01" cy="433.63" r="2.99" fill="#837dec"/><circle cx="343.92" cy="433.63" r="2.99" fill="#e6d5fe"/><circle cx="373.82" cy="433.63" r="2.99" fill="#dbc0ff"/><circle cx="403.73" cy="433.63" r="2.99" fill="#e1e0f8"/><circle cx="433.63" cy="433.63" r="2.99" fill="#c9c6f5"/><circle cx="463.54" cy="433.63" r="2.99" fill="#ebddfe"/><circle cx="493.45" cy="433.63" r="2.99" fill="#7c75eb"/><circle cx="14.950000000000001" cy="463.54" r="2.99" fill="#e6d5fe"/><circle cx="44.86" cy="463.54" r="2.99" fill="#efe5fd"/><circle cx="74.75999999999999" cy="463.54" r="2.99" fill="#827cec"/><circle cx="104.67" cy="463.54" r="2.99" fill="#fbfafc"/><circle cx="134.58" cy="463.54" r="2.99" fill="#f6f1fd"/><circle cx="164.48000000000002" cy="463.54" r="2.99" fill="#ecebfa"/><circle cx="194.39000000000001" cy="463.54" r="2.99" fill="#eee2fd"/><circle cx="224.29000000000002" cy="463.54" r="2.99" fill="#6d65e9"/><circle cx="254.20000000000002" cy="463.54" r="2.99" fill="#f6f1fd"/><circle cx="284.11" cy="463.54" r="2.99" fill="#847eec"/><circle cx="314.01" cy="463.54" r="2.99" fill="#fbfbfc"/><circle cx="343.92" cy="463.54" r="2.99" fill="#e0cafe"/><circle cx="373.82" cy="463.54" r="2.99" fill="#8781ec"/><circle cx="403.73" cy="463.54" r="2.99" fill="#f1e9fd"/><circle cx="433.63" cy="463.54" r="2.99" fill="#9590ee"/><circle cx="463.54" cy="463.54" r="2.99" fill="#e6d4fe"/><circle cx="493.45" cy="463.54" r="2.99" fill="#e9dafe"/><circle cx="14.950000000000001" cy="493.45" r="2.99" fill="#ede1fd"/><circle cx="44.86" cy="493.45" r="2.99" fill="#e7d7fe"/><circle cx="74.75999999999999" cy="493.45" r="2.99" fill="#e0c9ff"/><circle cx="104.67" cy="493.45" r="2.99" fill="#b5b1f3"/><circle cx="134.58" cy="493.45" r="2.99" fill="#e2cefe"/><circle cx="164.48000000000002" cy="493.45" r="2.99" fill="#b3aff2"/><circle cx="194.39000000000001" cy="493.45" r="2.99" fill="#b9b6f3"/><circle cx="224.29000000000002" cy="493.45" r="2.99" fill="#a6a2f1"/><circle cx="254.20000000000002" cy="493.45" r="2.99" fill="#f3edfd"/><circle cx="284.11" cy="493.45" r="2.99" fill="#e1ccfe"/><circle cx="314.01" cy="493.45" r="2.99" fill="#cdcaf6"/><circle cx="343.92" cy="493.45" r="2.99" fill="#e6d4fe"/><circle cx="373.82" cy="493.45" r="2.99" fill="#f3ebfd"/><circle cx="403.73" cy="493.45" r="2.99" fill="#faf9fc"/><circle cx="433.63" cy="493.45" r="2.99" fill="#f3ebfd"/><circle cx="463.54" cy="493.45" r="2.99" fill="#c9c6f5"/><circle cx="493.45" cy="493.45" r="2.99" fill="#dbc1ff"/></g></svg>