<?xml version="1.0" standalone="no"?><svg xmlns:xlink="http://www.w3.org/1999/xlink" xmlns="http://www.w3.org/2000/svg" viewBox="0 0 1080 1080" preserveAspectRatio="xMaxYMax slice"><g transform="scale(2.1243115656963023)"><rect x="0" y="0" width="508.4" height="508.4" fill="#000000"/><circle cx="14.950000000000001" cy="14.950000000000001" r="2.99" fill="#511e01"/><circle cx="44.86" cy="14.950000000000001" r="2.99" fill="#873201"/><circle cx="74.75999999999999" cy="14.950000000000001" r="2.99" fill="#1c0a00"/><circle cx="104.67" cy="14.950000000000001" r="2.99" fill="#c94b02"/><circle cx="134.58" cy="14.950000000000001" r="2.99" fill="#371400"/><circle cx="164.48000000000002" cy="14.950000000000001" r="2.99" fill="#080300"/><circle cx="194.39000000000001" cy="14.950000000000001" r="2.99" fill="#b34302"/><circle cx="224.29000000000002" cy="14.950000000000001" r="2.99" fill="#cc4c02"/><circle cx="254.20000000000002" cy="14.950000000000001" r="2.99" fill="#662601"/><circle cx="284.11" cy="14.950000000000001" r="2.99" fill="#481b00"/><circle cx="314.01" cy="14.950000000000001" r="2.99" fill="#6c2801"/><circle cx="343.92" cy="14.950000000000001" r="2.99" fill="#be4601"/><circle cx="373.82" cy="14.950000000000001" r="2.99" fill="#180900"/><circle cx="403.73" cy="14.950000000000001" r="2.99" fill="#c74901"/><circle cx="433.63" cy="14.950000000000001" r="2.99" fill="#511e01"/><circle cx="463.54" cy="14.950000000000001" r="2.99" fill="#ab4002"/><circle cx="493.45" cy="14.950000000000001" r="2.99" fill="#270e00"/><circle cx="14.950000000000001" cy="44.86" r="2.99" fill="#381501"/><circle cx="44.86" cy="44.86" r="2.99" fill="#933601"/><circle cx="74.75999999999999" cy="44.86" r="2.99" fill="#762b01"/><circle cx="104.67" cy="44.86" r="2.99" fill="#140700"/><circle cx="134.58" cy="44.86" r="2.99" fill="#140700"/><circle cx="164.48000000000002" cy="44.86" r="2.99" fill="#bf4701"/><circle cx="194.39000000000001" cy="44.86" r="2.99" fill="#451900"/><circle cx="224.29000000000002" cy="44.86" r="2.99" fill="#ab4002"/><circle cx="254.20000000000002" cy="44.86" r="2.99" fill="#1c0a00"/><circle cx="284.11" cy="44.86" r="2.99" fill="#481b01"/><circle cx="314.01" cy="44.86" r="2.99" fill="#c44801"/><circle cx="343.92" cy="44.86" r="2.99" fill="#6d2801"/><circle cx="373.82" cy="44.86" r="2.99" fill="#a93f02"/><circle cx="403.73" cy="44.86" r="2.99" fill="#ce4d02"/><circle cx="433.63" cy="44.86" r="2.99" fill="#461a00"/><circle cx="463.54" cy="44.86" r="2.99" fill="#853102"/><circle cx="493.45" cy="44.86" r="2.99" fill="#a53d02"/><circle cx="14.950000000000001" cy="74.75999999999999" r="2.99" fill="#2c1000"/><circle cx="44.86" cy="74.75999999999999" r="2.99" fill="#170800"/><circle cx="74.75999999999999" cy="74.75999999999999" r="2.99" fill="#a73e01"/><circle cx="104.67" cy="74.75999999999999" r="2.99" fill="#321200"/><circle cx="134.58" cy="74.75999999999999" r="2.99" fill="#511e01"/><circle cx="164.48000000000002" cy="74.75999999999999" r="2.99" fill="#2c1000"/><circle cx="194.39000000000001" cy="74.75999999999999" r="2.99" fill="#8d3401"/><circle cx="224.29000000000002" cy="74.75999999999999" r="2.99" fill="#4b1c01"/><circle cx="254.20000000000002" cy="74.75999999999999" r="2.99" fill="#411801"/><circle cx="284.11" cy="74.75999999999999" r="2.99" fill="#7f2f01"/><circle cx="314.01" cy="74.75999999999999" r="2.99" fill="#b84502"/><circle cx="343.92" cy="74.75999999999999" r="2.99" fill="#c34801"/><circle cx="373.82" cy="74.75999999999999" r="2.99" fill="#903501"/><circle cx="403.73" cy="74.75999999999999" r="2.99" fill="#2b1000"/><circle cx="433.63" cy="74.75999999999999" r="2.99" fill="#7c2e01"/><circle cx="463.54" cy="74.75999999999999" r="2.99" fill="#e85703"/><circle cx="493.45" cy="74.75999999999999" r="2.99" fill="#582101"/><circle cx="14.950000000000001" cy="104.67" r="2.99" fill="#923601"/><circle cx="44.86" cy="104.67" r="2.99" fill="#050200"/><circle cx="74.75999999999999" cy="104.67" r="2.99" fill="#5c2201"/><circle cx="104.67" cy="104.67" r="2.99" fill="#a23c01"/><circle cx="134.58" cy="104.67" r="2.99" fill="#bf4701"/><circle cx="164.48000000000002" cy="104.67" r="2.99" fill="#5c2200"/><circle cx="194.39000000000001" cy="104.67" r="2.99" fill="#150800"/><circle cx="224.29000000000002" cy="104.67" r="2.99" fill="#ed5803"/><circle cx="254.20000000000002" cy="104.67" r="2.99" fill="#622501"/><circle cx="284.11" cy="104.67" r="2.99" fill="#a33d02"/><circle cx="314.01" cy="104.67" r="2.99" fill="#622501"/><circle cx="343.92" cy="104.67" r="2.99" fill="#2a0f00"/><circle cx="373.82" cy="104.67" r="2.99" fill="#551f00"/><circle cx="403.73" cy="104.67" r="2.99" fill="#481b00"/><circle cx="433.63" cy="104.67" r="2.99" fill="#521e00"/><circle cx="463.54" cy="104.67" r="2.99" fill="#130700"/><circle cx="493.45" cy="104.67" r="2.99" fill="#010000"/><circle cx="14.950000000000001" cy="134.58" r="2.99" fill="#421901"/><circle cx="44.86" cy="134.58" r="2.99" fill="#c64a02"/><circle cx="74.75999999999999" cy="134.58" r="2.99" fill="#541f00"/><circle cx="104.67" cy="134.58" r="2.99" fill="#923601"/><circle cx="134.58" cy="134.58" r="2.99" fill="#491b00"/><circle cx="164.48000000000002" cy="134.58" r="2.99" fill="#a23c01"/><circle cx="194.39000000000001" cy="134.58" r="2.99" fill="#853102"/><circle cx="224.29000000000002" cy="134.58" r="2.99" fill="#bc4602"/><circle cx="254.20000000000002" cy="134.58" r="2.99" fill="#030100"/><circle cx="284.11" cy="134.58" r="2.99" fill="#210c00"/><circle cx="314.01" cy="134.58" r="2.99" fill="#ad4001"/><circle cx="343.92" cy="134.58" r="2.99" fill="#200c00"/><circle cx="373.82" cy="134.58" r="2.99" fill="#b74402"/><circle cx="403.73" cy="134.58" r="2.99" fill="#5d2301"/><circle cx="433.63" cy="134.58" r="2.99" fill="#a13c01"/><circle cx="463.54" cy="134.58" r="2.99" fill="#9b3a02"/><circle cx="493.45" cy="134.58" r="2.99" fill="#b04202"/><circle cx="14.950000000000001" cy="164.48000000000002" r="2.99" fill="#3b1601"/><circle cx="44.86" cy="164.48000000000002" r="2.99" fill="#4a1c01"/><circle cx="74.75999999999999" cy="164.48000000000002" r="2.99" fill="#521e00"/><circle cx="104.67" cy="164.48000000000002" r="2.99" fill="#b14202"/><circle cx="134.58" cy="164.48000000000002" r="2.99" fill="#913602"/><circle cx="164.48000000000002" cy="164.48000000000002" r="2.99" fill="#361400"/><circle cx="194.39000000000001" cy="164.48000000000002" r="2.99" fill="#9c3a01"/><circle cx="224.29000000000002" cy="164.48000000000002" r="2.99" fill="#361401"/><circle cx="254.20000000000002" cy="164.48000000000002" r="2.99" fill="#8e3501"/><circle cx="284.11" cy="164.48000000000002" r="2.99" fill="#833001"/><circle cx="314.01" cy="164.48000000000002" r="2.99" fill="#3f1701"/><circle cx="343.92" cy="164.48000000000002" r="2.99" fill="#752c01"/><circle cx="373.82" cy="164.48000000000002" r="2.99" fill="#7b2e01"/><circle cx="403.73" cy="164.48000000000002" r="2.99" fill="#df5303"/><circle cx="433.63" cy="164.48000000000002" r="2.99" fill="#6c2801"/><circle cx="463.54" cy="164.48000000000002" r="2.99" fill="#a93f01"/><circle cx="493.45" cy="164.48000000000002" r="2.99" fill="#973801"/><circle cx="14.950000000000001" cy="194.39000000000001" r="2.99" fill="#742b01"/><circle cx="44.86" cy="194.39000000000001" r="2.99" fill="#7f2f02"/><circle cx="74.75999999999999" cy="194.39000000000001" r="2.99" fill="#130700"/><circle cx="104.67" cy="194.39000000000001" r="2.99" fill="#af4101"/><circle cx="134.58" cy="194.39000000000001" r="2.99" fill="#140700"/><circle cx="164.48000000000002" cy="194.39000000000001" r="2.99" fill="#893302"/><circle cx="194.39000000000001" cy="194.39000000000001" r="2.99" fill="#4b1c01"/><circle cx="224.29000000000002" cy="194.39000000000001" r="2.99" fill="#ae4001"/><circle cx="254.20000000000002" cy="194.39000000000001" r="2.99" fill="#5f2301"/><circle cx="284.11" cy="194.39000000000001" r="2.99" fill="#823001"/><circle cx="314.01" cy="194.39000000000001" r="2.99" fill="#813002"/><circle cx="343.92" cy="194.39000000000001" r="2.99" fill="#0a0400"/><circle cx="373.82" cy="194.39000000000001" r="2.99" fill="#f55b03"/><circle cx="403.73" cy="194.39000000000001" r="2.99" fill="#260e00"/><circle cx="433.63" cy="194.39000000000001" r="2.99" fill="#9d3a01"/><circle cx="463.54" cy="194.39000000000001" r="2.99" fill="#531f01"/><circle cx="493.45" cy="194.39000000000001" r="2.99" fill="#150800"/><circle cx="14.950000000000001" cy="224.29000000000002" r="2.99" fill="#9b3901"/><circle cx="44.86" cy="224.29000000000002" r="2.99" fill="#ad4002"/><circle cx="74.75999999999999" cy="224.29000000000002" r="2.99" fill="#7d2f02"/><circle cx="104.67" cy="224.29000000000002" r="2.99" fill="#662601"/><circle cx="134.58" cy="224.29000000000002" r="2.99" fill="#a13b01"/><circle cx="164.48000000000002" cy="224.29000000000002" r="2.99" fill="#c64901"/><circle cx="194.39000000000001" cy="224.29000000000002" r="2.99" fill="#080300"/><circle cx="224.29000000000002" cy="224.29000000000002" r="2.99" fill="#2e1100"/><circle cx="254.20000000000002" cy="224.29000000000002" r="2.99" fill="#140700"/><circle cx="284.11" cy="224.29000000000002" r="2.99" fill="#170800"/><circle cx="314.01" cy="224.29000000000002" r="2.99" fill="#6b2701"/><circle cx="343.92" cy="224.29000000000002" r="2.99" fill="#ad4002"/><circle cx="373.82" cy="224.29000000000002" r="2.99" fill="#a33c01"/><circle cx="403.73" cy="224.29000000000002" r="2.99" fill="#5f2301"/><circle cx="433.63" cy="224.29000000000002" r="2.99" fill="#762b01"/><circle cx="463.54" cy="224.29000000000002" r="2.99" fill="#f55b03"/><circle cx="493.45" cy="224.29000000000002" r="2.99" fill="#ba4501"/><circle cx="14.950000000000001" cy="254.20000000000002" r="2.99" fill="#732b01"/><circle cx="44.86" cy="254.20000000000002" r="2.99" fill="#a53d02"/><circle cx="74.75999999999999" cy="254.20000000000002" r="2.99" fill="#622401"/><circle cx="104.67" cy="254.20000000000002" r="2.99" fill="#000000"/><circle cx="134.58" cy="254.20000000000002" r="2.99" fill="#381500"/><circle cx="164.48000000000002" cy="254.20000000000002" r="2.99" fill="#983801"/><circle cx="194.39000000000001" cy="254.20000000000002" r="2.99" fill="#4a1c01"/><circle cx="224.29000000000002" cy="254.20000000000002" r="2.99" fill="#421900"/><circle cx="254.20000000000002" cy="254.20000000000002" r="2.99" fill="#7d2e01"/><circle cx="284.11" cy="254.20000000000002" r="2.99" fill="#853101"/><circle cx="314.01" cy="254.20000000000002" r="2.99" fill="#130700"/><circle cx="343.92" cy="254.20000000000002" r="2.99" fill="#f25a03"/><circle cx="373.82" cy="254.20000000000002" r="2.99" fill="#a03c02"/><circle cx="403.73" cy="254.20000000000002" r="2.99" fill="#551f01"/><circle cx="433.63" cy="254.20000000000002" r="2.99" fill="#8e3502"/><circle cx="463.54" cy="254.20000000000002" r="2.99" fill="#702901"/><circle cx="493.45" cy="254.20000000000002" r="2.99" fill="#521e00"/><circle cx="14.950000000000001" cy="284.11" r="2.99" fill="#963802"/><circle cx="44.86" cy="284.11" r="2.99" fill="#5e2300"/><circle cx="74.75999999999999" cy="284.11" r="2.99" fill="#8d3401"/><circle cx="104.67" cy="284.11" r="2.99" fill="#c74a02"/><circle cx="134.58" cy="284.11" r="2.99" fill="#953802"/><circle cx="164.48000000000002" cy="284.11" r="2.99" fill="#521e00"/><circle cx="194.39000000000001" cy="284.11" r="2.99" fill="#1f0b00"/><circle cx="224.29000000000002" cy="284.11" r="2.99" fill="#762c01"/><circle cx="254.20000000000002" cy="284.11" r="2.99" fill="#030100"/><circle cx="284.11" cy="284.11" r="2.99" fill="#993901"/><circle cx="314.01" cy="284.11" r="2.99" fill="#4b1c00"/><circle cx="343.92" cy="284.11" r="2.99" fill="#3d1701"/><circle cx="373.82" cy="284.11" r="2.99" fill="#802f01"/><circle cx="403.73" cy="284.11" r="2.99" fill="#4d1d00"/><circle cx="433.63" cy="284.11" r="2.99" fill="#bb4501"/><circle cx="463.54" cy="284.11" r="2.99" fill="#2e1101"/><circle cx="493.45" cy="284.11" r="2.99" fill="#6f2a01"/><circle cx="14.950000000000001" cy="314.01" r="2.99" fill="#6c2801"/><circle cx="44.86" cy="314.01" r="2.99" fill="#250d00"/><circle cx="74.75999999999999" cy="314.01" r="2.99" fill="#843101"/><circle cx="104.67" cy="314.01" r="2.99" fill="#652601"/><circle cx="134.58" cy="314.01" r="2.99" fill="#973801"/><circle cx="164.48000000000002" cy="314.01" r="2.99" fill="#3c1600"/><circle cx="194.39000000000001" cy="314.01" r="2.99" fill="#dd5203"/><circle cx="224.29000000000002" cy="314.01" r="2.99" fill="#8f3501"/><circle cx="254.20000000000002" cy="314.01" r="2.99" fill="#4a1b01"/><circle cx="284.11" cy="314.01" r="2.99" fill="#b94401"/><circle cx="314.01" cy="314.01" r="2.99" fill="#341301"/><circle cx="343.92" cy="314.01" r="2.99" fill="#ef5903"/><circle cx="373.82" cy="314.01" r="2.99" fill="#481b00"/><circle cx="403.73" cy="314.01" r="2.99" fill="#5a2100"/><circle cx="433.63" cy="314.01" r="2.99" fill="#913602"/><circle cx="463.54" cy="314.01" r="2.99" fill="#973801"/><circle cx="493.45" cy="314.01" r="2.99" fill="#511e01"/><circle cx="14.950000000000001" cy="343.92" r="2.99" fill="#160800"/><circle cx="44.86" cy="343.92" r="2.99" fill="#a33d02"/><circle cx="74.75999999999999" cy="343.92" r="2.99" fill="#c04702"/><circle cx="104.67" cy="343.92" r="2.99" fill="#070300"/><circle cx="134.58" cy="343.92" r="2.99" fill="#501e01"/><circle cx="164.48000000000002" cy="343.92" r="2.99" fill="#9b3901"/><circle cx="194.39000000000001" cy="343.92" r="2.99" fill="#813001"/><circle cx="224.29000000000002" cy="343.92" r="2.99" fill="#070300"/><circle cx="254.20000000000002" cy="343.92" r="2.99" fill="#bd4601"/><circle cx="284.11" cy="343.92" r="2.99" fill="#9d3a02"/><circle cx="314.01" cy="343.92" r="2.99" fill="#020100"/><circle cx="343.92" cy="343.92" r="2.99" fill="#a73e02"/><circle cx="373.82" cy="343.92" r="2.99" fill="#813001"/><circle cx="403.73" cy="343.92" r="2.99" fill="#cf4d03"/><circle cx="433.63" cy="343.92" r="2.99" fill="#a73e02"/><circle cx="463.54" cy="343.92" r="2.99" fill="#f25a03"/><circle cx="493.45" cy="343.92" r="2.99" fill="#e95703"/><circle cx="14.950000000000001" cy="373.82" r="2.99" fill="#421900"/><circle cx="44.86" cy="373.82" r="2.99" fill="#0d0500"/><circle cx="74.75999999999999" cy="373.82" r="2.99" fill="#762c01"/><circle cx="104.67" cy="373.82" r="2.99" fill="#070300"/><circle cx="134.58" cy="373.82" r="2.99" fill="#aa3f02"/><circle cx="164.48000000000002" cy="373.82" r="2.99" fill="#8a3301"/><circle cx="194.39000000000001" cy="373.82" r="2.99" fill="#e25403"/><circle cx="224.29000000000002" cy="373.82" r="2.99" fill="#af4102"/><circle cx="254.20000000000002" cy="373.82" r="2.99" fill="#c04702"/><circle cx="284.11" cy="373.82" r="2.99" fill="#1b0a00"/><circle cx="314.01" cy="373.82" r="2.99" fill="#100600"/><circle cx="343.92" cy="373.82" r="2.99" fill="#682701"/><circle cx="373.82" cy="373.82" r="2.99" fill="#4a1c00"/><circle cx="403.73" cy="373.82" r="2.99" fill="#090300"/><circle cx="433.63" cy="373.82" r="2.99" fill="#b34302"/><circle cx="463.54" cy="373.82" r="2.99" fill="#cb4c02"/><circle cx="493.45" cy="373.82" r="2.99" fill="#9a3902"/><circle cx="14.950000000000001" cy="403.73" r="2.99" fill="#000000"/><circle cx="44.86" cy="403.73" r="2.99" fill="#3a1501"/><circle cx="74.75999999999999" cy="403.73" r="2.99" fill="#240d00"/><circle cx="104.67" cy="403.73" r="2.99" fill="#0b0400"/><circle cx="134.58" cy="403.73" r="2.99" fill="#541f01"/><circle cx="164.48000000000002" cy="403.73" r="2.99" fill="#883302"/><circle cx="194.39000000000001" cy="403.73" r="2.99" fill="#090300"/><circle cx="224.29000000000002" cy="403.73" r="2.99" fill="#b74301"/><circle cx="254.20000000000002" cy="403.73" r="2.99" fill="#8e3401"/><circle cx="284.11" cy="403.73" r="2.99" fill="#562001"/><circle cx="314.01" cy="403.73" r="2.99" fill="#4e1d01"/><circle cx="343.92" cy="403.73" r="2.99" fill="#a93f02"/><circle cx="373.82" cy="403.73" r="2.99" fill="#2e1101"/><circle cx="403.73" cy="403.73" r="2.99" fill="#a93f02"/><circle cx="433.63" cy="403.73" r="2.99" fill="#a53e02"/><circle cx="463.54" cy="403.73" r="2.99" fill="#0f0600"/><circle cx="493.45" cy="403.73" r="2.99" fill="#0c0400"/><circle cx="14.950000000000001" cy="433.63" r="2.99" fill="#552001"/><circle cx="44.86" cy="433.63" r="2.99" fill="#d85003"/><circle cx="74.75999999999999" cy="433.63" r="2.99" fill="#010000"/><circle cx="104.67" cy="433.63" r="2.99" fill="#9e3a01"/><circle cx="134.58" cy="433.63" r="2.99" fill="#7f2f01"/><circle cx="164.48000000000002" cy="433.63" r="2.99" fill="#2a1001"/><circle cx="194.39000000000001" cy="433.63" r="2.99" fill="#bb4501"/><circle cx="224.29000000000002" cy="433.63" r="2.99" fill="#883201"/><circle cx="254.20000000000002" cy="433.63" r="2.99" fill="#150800"/><circle cx="284.11" cy="433.63" r="2.99" fill="#702901"/><circle cx="314.01" cy="433.63" r="2.99" fill="#db5203"/><circle cx="343.92" cy="433.63" r="2.99" fill="#5d2300"/><circle cx="373.82" cy="433.63" r="2.99" fill="#662601"/><circle cx="403.73" cy="433.63" r="2.99" fill="#7e2f01"/><circle cx="433.63" cy="433.63" r="2.99" fill="#0b0400"/><circle cx="463.54" cy="433.63" r="2.99" fill="#b14202"/><circle cx="493.45" cy="433.63" r="2.99" fill="#6e2901"/><circle cx="14.950000000000001" cy="463.54" r="2.99" fill="#7b2e01"/><circle cx="44.86" cy="463.54" r="2.99" fill="#190900"/><circle cx="74.75999999999999" cy="463.54" r="2.99" fill="#100600"/><circle cx="104.67" cy="463.54" r="2.99" fill="#a03b01"/><circle cx="134.58" cy="463.54" r="2.99" fill="#bc4602"/><circle cx="164.48000000000002" cy="463.54" r="2.99" fill="#6a2701"/><circle cx="194.39000000000001" cy="463.54" r="2.99" fill="#612401"/><circle cx="224.29000000000002" cy="463.54" r="2.99" fill="#973802"/><circle cx="254.20000000000002" cy="463.54" r="2.99" fill="#b54301"/><circle cx="284.11" cy="463.54" r="2.99" fill="#240d00"/><circle cx="314.01" cy="463.54" r="2.99" fill="#8c3401"/><circle cx="343.92" cy="463.54" r="2.99" fill="#aa3f01"/><circle cx="373.82" cy="463.54" r="2.99" fill="#993902"/><circle cx="403.73" cy="463.54" r="2.99" fill="#5a2201"/><circle cx="433.63" cy="463.54" r="2.99" fill="#ca4b02"/><circle cx="463.54" cy="463.54" r="2.99" fill="#ec5803"/><circle cx="493.45" cy="463.54" r="2.99" fill="#983902"/><circle cx="14.950000000000001" cy="493.45" r="2.99" fill="#8c3402"/><circle cx="44.86" cy="493.45" r="2.99" fill="#7e2f02"/><circle cx="74.75999999999999" cy="493.45" r="2.99" fill="#ba4501"/><circle cx="104.67" cy="493.45" r="2.99" fill="#1a0a00"/><circle cx="134.58" cy="493.45" r="2.99" fill="#772c01"/><circle cx="164.48000000000002" cy="493.45" r="2.99" fill="#260e00"/><circle cx="194.39000000000001" cy="493.45" r="2.99" fill="#792d01"/><circle cx="224.29000000000002" cy="493.45" r="2.99" fill="#3d1700"/><circle cx="254.20000000000002" cy="493.45" r="2.99" fill="#ba4501"/><circle cx="284.11" cy="493.45" r="2.99" fill="#220c00"/><circle cx="314.01" cy="493.45" r="2.99" fill="#5a2201"/><circle cx="343.92" cy="493.45" r="2.99" fill="#a23c01"/><circle cx="373.82" cy="493.45" r="2.99" fill="#6b2801"/><circle cx="403.73" cy="493.45" r="2.99" fill="#712a01"/><circle cx="433.63" cy="493.45" r="2.99" fill="#602401"/><circle cx="463.54" cy="493.45" r="2.99" fill="#602400"/><circle cx="493.45" cy="493.45" r="2.99" fill="#4f1d00"/></g></svg>